# xmcd
#
# Track frame offsets: 
#        150
#        13257
#        25065
#        35746
#        47214
#        59254
#        70550
#        81477
#        95010
#        104931
#        117426
#        128061
#        142669
#        154589
#        167279
#        181238
#        189670
#        203862
#        224128
#        235676
#        247305
#        258101
#
# Disc length: 3626 seconds
#
# Revision: 0
# Processed by: cddbd v1.5.1PL0 Copyright (c) Steve Scherf et al.
# Submitted via: ExactAudioCopy v0.95a5
#
DISCID=400e2816
DTITLE=Various Artist - New Orleans Rhythm and Blues - Good Rockin' Tonight
DYEAR=2004
DGENRE=Blues
TTITLE0=Roy Byrd (Profesor Longhair) - Mardi Grass in New Orleans (194
TTITLE0=9)
TTITLE1=Champion Jack Dupree - Heavy Heart Blues (1941)
TTITLE2=Fats Domino - Careless Love (1950)
TTITLE3=Archibald - Crescent City Bounce (1950)
TTITLE4=Roy Byrd (Profesor Longhair) - Her Mind Is Gone (1949)
TTITLE5=Little Joe Gaines - She Won't Leave No More (1949)
TTITLE6=Smiley Lewis - Growing Old (1950)
TTITLE7=Roy Brown - Good Rockin' Tonight (1947)
TTITLE8=Chubby Newsome - Black Bitin' Woman (1948)
TTITLE9=Dave Bartolomew - Good Jax Boogie (1950)
TTITLE10=Lloyd Price - Where You At? (1953)
TTITLE11=Roy Brown - Long About Midnight (1947)
TTITLE12=Larry Darnell - For You My Love (1949)
TTITLE13=Fats Domino - The Fat Man (1949)
TTITLE14=Dave Bartholomew - Country Boy (1949)
TTITLE15=Jewel King - 3 x 7 =21 (1949)
TTITLE16=Paul Gayten - I'll Never Be Free (1950)
TTITLE17=Archibald - Stack-A'Lee (1950)
TTITLE18=Roy Byrd (Profesor Longhair) - Bald Head (1949)
TTITLE19=Lloyd Price - Lawdy Miss Clawdy (1952)
TTITLE20=Shirley and Lee - I'm Gone (1952)
TTITLE21=Guitar Slim - The Things That I Used To Do (1953)
EXTD=
EXTT0=
EXTT1=
EXTT2=
EXTT3=
EXTT4=
EXTT5=
EXTT6=
EXTT7=
EXTT8=
EXTT9=
EXTT10=
EXTT11=
EXTT12=
EXTT13=
EXTT14=
EXTT15=
EXTT16=
EXTT17=
EXTT18=
EXTT19=
EXTT20=
EXTT21=
PLAYORDER=
